<svg width="25" height="24" viewBox="0 0 25 24" fill="none" xmlns="http://www.w3.org/2000/svg">
<path d="M0.16 14.72V10.4H9.616V0.799998H14.656V10.4H24.208V14.72H14.656V23.984H9.616V14.72H0.16Z" fill="white"/>
<path d="M0.16 14.72H-1.34V16.22H0.16V14.72ZM0.16 10.4V8.9H-1.34V10.4H0.16ZM9.616 10.4V11.9H11.116V10.4H9.616ZM9.616 0.799999V-0.700001H8.116V0.799999H9.616ZM14.656 0.799999H16.156V-0.700001H14.656V0.799999ZM14.656 10.4H13.156V11.9H14.656V10.4ZM24.208 10.4H25.708V8.9H24.208V10.4ZM24.208 14.72V16.22H25.708V14.72H24.208ZM14.656 14.72V13.22H13.156V14.72H14.656ZM14.656 23.984V25.484H16.156V23.984H14.656ZM9.616 23.984H8.116V25.484H9.616V23.984ZM9.616 14.72H11.116V13.22H9.616V14.72ZM1.66 14.72V10.4H-1.34V14.72H1.66ZM0.16 11.9H9.616V8.9H0.16V11.9ZM11.116 10.4V0.799999H8.116V10.4H11.116ZM9.616 2.3H14.656V-0.700001H9.616V2.3ZM13.156 0.799999V10.4H16.156V0.799999H13.156ZM14.656 11.9H24.208V8.9H14.656V11.9ZM22.708 10.4V14.72H25.708V10.4H22.708ZM24.208 13.22H14.656V16.22H24.208V13.22ZM13.156 14.72V23.984H16.156V14.72H13.156ZM14.656 22.484H9.616V25.484H14.656V22.484ZM11.116 23.984V14.72H8.116V23.984H11.116ZM9.616 13.22H0.16V16.22H9.616V13.22Z" fill="white"/>
</svg>