<svg width="239" height="228" viewBox="0 0 239 228" fill="none" xmlns="http://www.w3.org/2000/svg">
<path d="M50.2413 226.574C50.2413 226.574 42.3677 207.194 65.9878 192.659L50.2413 226.574Z" fill="#E6E6E6"/>
<path d="M40.5582 226.222C40.5582 226.222 38.1566 212.408 19.567 212.527L40.5582 226.222Z" fill="#E6E6E6"/>
<path d="M218.144 226.574C218.144 226.574 207.742 200.97 238.947 181.767L218.144 226.574Z" fill="#E6E6E6"/>
<path d="M205.351 226.109C205.351 226.109 202.178 207.859 177.619 208.016L205.351 226.109Z" fill="#E6E6E6"/>
<path d="M166.941 214.883L160.904 217.126L149.378 194.906L158.289 191.595L166.941 214.883Z" fill="#FFB7B7"/>
<path d="M170.655 220.162L151.188 227.395L151.096 227.149C150.35 225.139 150.432 222.916 151.325 220.967C152.218 219.018 153.848 217.503 155.858 216.756L155.858 216.756L167.748 212.339L170.655 220.162Z" fill="#2F2E41"/>
<path d="M107.525 221.152L101.085 221.151L98.0206 196.309L107.527 196.31L107.525 221.152Z" fill="#FFB7B7"/>
<path d="M108.643 227.395L87.8752 227.395V227.132C87.8754 224.988 88.7271 222.932 90.2429 221.416C91.7588 219.9 93.8147 219.049 95.9585 219.049H95.959L108.643 219.049L108.643 227.395Z" fill="#2F2E41"/>
<path d="M137.013 48.8575L134.912 44.6547L117.05 53.5856L117.575 57.2631L114.16 61.7286C114.16 61.7286 108.381 64.8807 109.432 75.3877L110.483 85.3694L111.796 98.2404L102.603 130.024L97.8744 172.052L94.4596 205.937L111.008 205.149L126.243 149.987L153.036 209.352L171.423 204.624L146.207 145.785L143.055 121.093C143.055 121.093 145.156 107.959 135.174 99.0284L136.75 94.3003V88.4738L142.004 60.6778L137.013 48.8575Z" fill="#2F2E41"/>
<path opacity="0.2" d="M137.504 108.926L125.946 149.903L126.54 150.071L138.098 109.094L137.504 108.926Z" fill="black"/>
<path d="M136.488 98.2404H110.745V100.867H136.488V98.2404Z" fill="#3F3D56"/>
<path d="M110.746 102.443C111.326 102.443 111.796 101.267 111.796 99.8164C111.796 98.3657 111.326 97.1897 110.746 97.1897C110.165 97.1897 109.695 98.3657 109.695 99.8164C109.695 101.267 110.165 102.443 110.746 102.443Z" fill="#3F3D56"/>
<path d="M129.071 42.0631C135.857 38.3535 138.351 29.845 134.642 23.0589C130.932 16.2727 122.424 13.7787 115.637 17.4884C108.851 21.198 106.357 29.7065 110.067 36.4926C113.777 43.2787 122.285 45.7727 129.071 42.0631Z" fill="#FFB7B7"/>
<path d="M143.783 24.7768C150.625 24.7768 156.171 19.2303 156.171 12.3884C156.171 5.54649 150.625 0 143.783 0C136.941 0 131.394 5.54649 131.394 12.3884C131.394 19.2303 136.941 24.7768 143.783 24.7768Z" fill="#2F2E41"/>
<path d="M159.504 11.0614C159.993 12.7028 160.136 14.4277 159.924 16.1272C159.712 17.8267 159.151 19.4638 158.274 20.9353C157.398 22.4067 156.226 23.6805 154.833 24.6762C153.439 25.6719 151.855 26.3679 150.179 26.7202C148.503 27.0725 146.772 27.0735 145.095 26.7232C143.419 26.3729 141.834 25.6787 140.439 24.6847C139.044 23.6907 137.871 22.4183 136.993 20.9479C136.115 19.4775 135.551 17.841 135.338 16.1418C136.225 19.1221 138.201 21.6596 140.873 23.2505C143.545 24.8415 146.717 25.3695 149.76 24.7297C152.803 24.09 155.495 22.3293 157.3 19.7972C159.105 17.2651 159.892 14.1468 159.504 11.0614Z" fill="#2F2E41"/>
<path d="M110.562 25.8881C110.199 29.0903 110.902 32.3231 112.562 35.0854C114.222 37.8477 116.747 39.9854 119.745 41.1672C122.743 42.3489 126.048 42.5088 129.146 41.6221C132.245 40.7353 134.964 38.8514 136.883 36.2623C138.802 33.6732 139.814 30.5234 139.761 27.301C139.709 24.0787 138.595 20.9636 136.592 18.4386C134.589 15.9135 131.81 14.1195 128.684 13.3344C125.558 12.5494 122.261 12.8171 119.303 14.0962C116.856 12.1232 113.823 12.7347 111.357 14.817C108.569 17.1714 107.741 18.7887 105.578 22.6606C107.705 22.9593 108.436 25.5894 110.562 25.8881Z" fill="#2F2E41"/>
<path d="M162.037 68.0007C161.88 72.1508 161.569 80.3193 161.569 80.7363C161.569 81.1756 155.376 93.998 152.701 99.5164V99.5193C152.511 99.9082 152.34 100.261 152.189 100.571C151.982 101 151.657 101.36 151.252 101.609C150.846 101.858 150.378 101.985 149.903 101.976L138.211 101.766C137.568 101.755 136.955 101.497 136.499 101.044C136.042 100.591 135.778 99.9798 135.762 99.3373L134.458 47.8996C134.454 47.73 134.484 47.5613 134.546 47.4033C134.607 47.2453 134.7 47.1014 134.819 46.9798C134.937 46.8583 135.079 46.7617 135.235 46.6957C135.391 46.6297 135.559 46.5957 135.729 46.5956H150.807C151.444 46.5959 152.067 46.7756 152.607 47.1141C153.146 47.4526 153.58 47.9363 153.857 48.5097L161.094 63.4812C161.772 64.8881 162.096 66.4398 162.037 68.0007V68.0007Z" fill="#0069B6"/>
<path d="M135.559 95.8076C132.559 93.9895 129.863 91.7112 127.57 89.0562C122.243 83.0645 119.003 75.5063 118.337 67.5165C117.742 60.6805 119.099 55.5992 122.368 52.4135C126.524 48.364 132.182 48.9524 132.42 48.9796L132.674 49.0083L136.506 52.2512L135.422 53.5329L131.992 50.6312C130.943 50.5787 126.657 50.5674 123.527 53.6294C120.645 56.4479 119.462 61.0713 120.01 67.3711C120.643 74.9783 123.72 82.1766 128.781 87.8913C130.965 90.4167 133.524 92.5908 136.369 94.337L135.559 95.8076Z" fill="#007745"/>
<path d="M157.316 76.2656L136.887 80.4614L136.999 81.0095L157.428 76.8138L157.316 76.2656Z" fill="#3F3D56"/>
<path d="M143.851 46.5842L143.292 46.607L144.619 79.113L145.178 79.0902L143.851 46.5842Z" fill="#3F3D56"/>
<path d="M162.037 68.0008C161.88 72.1509 161.569 80.3194 161.569 80.7364C161.569 81.1758 155.376 93.9981 152.701 99.5166L157.688 70.5614C157.881 69.4473 158.366 68.4045 159.094 67.5396C159.822 66.6747 160.767 66.0188 161.832 65.6389C162 66.4144 162.068 67.2081 162.037 68.0008Z" fill="#3F3D56"/>
<path d="M131.398 128.683C131.84 128.114 132.151 127.455 132.31 126.753C132.47 126.05 132.473 125.322 132.32 124.618C132.168 123.914 131.862 123.252 131.426 122.679C130.99 122.106 130.434 121.636 129.796 121.301L130.809 110.09L124.146 107.812L122.938 123.665C122.446 124.773 122.379 126.024 122.747 127.179C123.116 128.334 123.896 129.313 124.939 129.932C125.982 130.55 127.215 130.765 128.406 130.535C129.596 130.305 130.661 129.646 131.398 128.683Z" fill="#FFB7B7"/>
<path d="M132.269 117.834L120.462 117.406L120.962 60.4691C120.953 58.8579 121.451 57.2848 122.386 55.9721C123.32 54.6595 124.643 53.6736 126.168 53.154C127.594 52.6805 129.134 52.6791 130.56 53.1501C132.177 53.6976 133.566 54.7681 134.507 56.1926C135.449 57.6171 135.889 59.3145 135.759 61.017L132.269 117.834Z" fill="#CBCBCB"/>
<path d="M235.843 227.589H0.61739C0.453648 227.589 0.296621 227.524 0.180838 227.408C0.0650552 227.292 0 227.135 0 226.972C0 226.808 0.0650552 226.651 0.180838 226.535C0.296621 226.419 0.453648 226.354 0.61739 226.354H235.843C236.007 226.354 236.164 226.419 236.279 226.535C236.395 226.651 236.46 226.808 236.46 226.972C236.46 227.135 236.395 227.292 236.279 227.408C236.164 227.524 236.007 227.589 235.843 227.589Z" fill="#CBCBCB"/>
</svg>
