<svg width="20" height="20" viewBox="0 0 20 20" fill="none" xmlns="http://www.w3.org/2000/svg">
<path d="M9.12834 16.3219L9.12762 16.3213C6.97172 14.3663 5.22284 12.7794 4.0069 11.2928C2.7967 9.81324 2.16675 8.49409 2.16675 7.08333C2.16675 4.79281 3.95956 3 6.25008 3C7.54869 3 8.80287 3.60697 9.61941 4.56584L10.0001 5.01287L10.3808 4.56584C11.1973 3.60697 12.4515 3 13.7501 3C16.0406 3 17.8334 4.79281 17.8334 7.08333C17.8334 8.4941 17.2035 9.81327 15.9932 11.294C14.7782 12.7804 13.0314 14.3678 10.8782 16.3245L10.8732 16.329L10.8721 16.33L10.0014 17.1167L9.12834 16.3219Z" fill="#FF0000" stroke="#FF0000"/>
</svg>
