<svg width="50" height="50" viewBox="0 0 50 50" fill="none" xmlns="http://www.w3.org/2000/svg">
<path d="M18.1935 0.0208006C16.4088 -0.539689 27.7375 10.2977 20.8541 24C20.8541 24 40.0084 19.8894 35.2364 14.4084C30.4644 8.92739 29.1009 3.44644 18.1935 0.0208006Z" fill="#007745"/>
<circle cx="24.5" cy="28.5" r="21.5" fill="#007745"/>
<path d="M31.0464 30.6358L31.0049 30.5873L30.9525 30.5508C29.4916 29.5328 28.7419 28.4296 28.3962 27.2723C28.046 26.0998 28.0954 24.8223 28.3244 23.4323C28.464 22.5857 28.6598 21.7446 28.8626 20.8737C28.9994 20.2861 29.1393 19.6849 29.2673 19.0593C29.577 17.5451 29.7957 15.9647 29.622 14.3764C28.9416 8.15165 25.2767 4.2422 22.0893 2.57142C22.0606 2.55641 22.0112 2.5325 21.9489 2.51678C21.8992 2.50422 21.7546 2.47377 21.5943 2.54921C21.3955 2.64274 21.3224 2.82192 21.3046 2.93948C21.2895 3.03915 21.3067 3.12071 21.3149 3.15512C21.333 3.23111 21.3647 3.30044 21.3851 3.34284C21.4092 3.39298 21.4386 3.44779 21.4699 3.50378C21.5248 3.60222 21.6071 3.74126 21.7039 3.90493C21.8059 4.07741 21.9241 4.27724 22.0435 4.48571C22.5358 5.34455 23.2043 6.60713 23.7344 8.14429C24.7941 11.2174 25.2905 15.3495 22.7509 19.5442C21.441 21.7077 20.9045 23.6117 20.4235 25.3188C20.3883 25.4436 20.3534 25.5674 20.3186 25.6901C19.8073 27.4904 19.3019 29.0612 17.9536 30.6358C17.6963 30.9362 17.3789 31.0626 16.9711 31.0555C16.5388 31.0479 16.0077 30.8877 15.3892 30.5868C14.1517 29.9847 12.7436 28.9118 11.3758 27.8442C11.2728 27.7638 11.1699 27.6833 11.0671 27.6029C9.84189 26.6446 8.64363 25.7073 7.72864 25.2752C7.47375 25.1549 7.21539 25.0607 6.96549 25.021C6.7148 24.9813 6.43823 24.9914 6.18247 25.1219C5.64569 25.3959 5.5 26.0184 5.5 26.6641C5.5 37.5981 13.986 46.5 24.5 46.5C35.014 46.5 43.5 37.5981 43.5 26.6641C43.5 26.0184 43.3543 25.3959 42.8175 25.1219C42.5618 24.9914 42.2852 24.9813 42.0345 25.021C41.7846 25.0607 41.5263 25.1549 41.2714 25.2752C40.3564 25.7073 39.1581 26.6446 37.9329 27.6029C37.8301 27.6833 37.7272 27.7638 37.6242 27.8442C36.2564 28.9118 34.8483 29.9847 33.6108 30.5868C32.9923 30.8877 32.4612 31.0479 32.0289 31.0555C31.6211 31.0626 31.3037 30.9362 31.0464 30.6358Z" fill="white" stroke="#007745"/>
</svg>
