<svg width="200" height="33" viewBox="0 0 200 33" fill="none" xmlns="http://www.w3.org/2000/svg">
<path d="M154.196 21.52C155.376 22.74 156.626 23.69 157.946 24.37C159.286 25.05 160.866 25.39 162.686 25.39C163.726 25.39 164.726 25.27 165.686 25.03C166.646 24.77 167.436 24.39 168.056 23.89C168.676 23.37 168.986 22.72 168.986 21.94C168.986 21.26 168.706 20.75 168.146 20.41C167.606 20.05 166.816 19.78 165.776 19.6C164.756 19.4 163.506 19.21 162.026 19.03C160.226 18.79 158.666 18.43 157.346 17.95C156.026 17.47 155.006 16.82 154.286 16C153.566 15.18 153.206 14.15 153.206 12.91C153.206 11.59 153.616 10.47 154.436 9.55C155.276 8.63 156.396 7.93 157.796 7.45C159.216 6.95 160.796 6.7 162.536 6.7C164.676 6.7 166.516 7.02 168.056 7.66C169.616 8.3 170.846 9.21 171.746 10.39L169.586 12.76C168.806 11.82 167.816 11.06 166.616 10.48C165.436 9.9 164.046 9.61 162.446 9.61C161.366 9.61 160.396 9.73 159.536 9.97C158.676 10.19 157.996 10.52 157.496 10.96C156.996 11.4 156.746 11.93 156.746 12.55C156.746 13.29 157.006 13.88 157.526 14.32C158.066 14.74 158.816 15.07 159.776 15.31C160.756 15.55 161.886 15.75 163.166 15.91C164.366 16.05 165.526 16.23 166.646 16.45C167.766 16.65 168.766 16.95 169.646 17.35C170.546 17.73 171.246 18.26 171.746 18.94C172.266 19.6 172.526 20.46 172.526 21.52C172.526 22.88 172.116 24.07 171.296 25.09C170.496 26.11 169.356 26.9 167.876 27.46C166.396 28.02 164.656 28.3 162.656 28.3C160.476 28.3 158.516 27.98 156.776 27.34C155.036 26.7 153.496 25.66 152.156 24.22L154.196 21.52Z" fill="#0069B6"/>
<path d="M100.816 24.88C100.256 25.34 99.4962 25.84 98.5362 26.38C97.5762 26.92 96.4762 27.38 95.2362 27.76C93.9962 28.12 92.6762 28.3 91.2762 28.3C89.5762 28.3 87.9862 28.05 86.5062 27.55C85.0462 27.03 83.7662 26.3 82.6662 25.36C81.5662 24.42 80.7062 23.29 80.0862 21.97C79.4662 20.63 79.1562 19.14 79.1562 17.5C79.1562 15.96 79.4762 14.54 80.1162 13.24C80.7562 11.94 81.6362 10.81 82.7562 9.85C83.8962 8.89 85.1962 8.15 86.6562 7.63C88.1162 7.09 89.6562 6.82 91.2762 6.82C92.6362 6.82 93.9362 6.99 95.1762 7.33C96.4162 7.67 97.5362 8.11 98.5362 8.65C99.5562 9.19 100.366 9.75 100.966 10.33L99.0462 13.06C97.9662 12.18 96.7662 11.45 95.4462 10.87C94.1262 10.29 92.6362 10 90.9762 10C89.9162 10 88.8762 10.18 87.8562 10.54C86.8362 10.88 85.9162 11.38 85.0962 12.04C84.2962 12.68 83.6562 13.46 83.1762 14.38C82.6962 15.3 82.4562 16.34 82.4562 17.5C82.4562 18.76 82.7062 19.87 83.2062 20.83C83.7062 21.77 84.3762 22.57 85.2162 23.23C86.0762 23.87 87.0462 24.35 88.1262 24.67C89.2262 24.99 90.3562 25.15 91.5162 25.15C92.7162 25.15 93.7862 25 94.7262 24.7C95.6662 24.38 96.5062 23.99 97.2462 23.53C97.9862 23.07 98.6562 22.62 99.2562 22.18L100.816 24.88Z" fill="#0069B6"/>
<path d="M120.236 28H106.016V24.79H111.506V10.21H106.016V7H120.236V10.21H114.746V24.79H120.236V28Z" fill="black"/>
<path d="M128.776 7H146.206V10.12H132.016V15.67H144.556V18.79H132.016V24.88H146.206V28H128.776V7Z" fill="black"/>
<path d="M179.196 21.52C180.376 22.74 181.626 23.69 182.946 24.37C184.286 25.05 185.866 25.39 187.686 25.39C188.726 25.39 189.726 25.27 190.686 25.03C191.646 24.77 192.436 24.39 193.056 23.89C193.676 23.37 193.986 22.72 193.986 21.94C193.986 21.26 193.706 20.75 193.146 20.41C192.606 20.05 191.816 19.78 190.776 19.6C189.756 19.4 188.506 19.21 187.026 19.03C185.226 18.79 183.666 18.43 182.346 17.95C181.026 17.47 180.006 16.82 179.286 16C178.566 15.18 178.206 14.15 178.206 12.91C178.206 11.59 178.616 10.47 179.436 9.55C180.276 8.63 181.396 7.93 182.796 7.45C184.216 6.95 185.796 6.7 187.536 6.7C189.676 6.7 191.516 7.02 193.056 7.66C194.616 8.3 195.846 9.21 196.746 10.39L194.586 12.76C193.806 11.82 192.816 11.06 191.616 10.48C190.436 9.9 189.046 9.61 187.446 9.61C186.366 9.61 185.396 9.73 184.536 9.97C183.676 10.19 182.996 10.52 182.496 10.96C181.996 11.4 181.746 11.93 181.746 12.55C181.746 13.29 182.006 13.88 182.526 14.32C183.066 14.74 183.816 15.07 184.776 15.31C185.756 15.55 186.886 15.75 188.166 15.91C189.366 16.05 190.526 16.23 191.646 16.45C192.766 16.65 193.766 16.95 194.646 17.35C195.546 17.73 196.246 18.26 196.746 18.94C197.266 19.6 197.526 20.46 197.526 21.52C197.526 22.88 197.116 24.07 196.296 25.09C195.496 26.11 194.356 26.9 192.876 27.46C191.396 28.02 189.656 28.3 187.656 28.3C185.476 28.3 183.516 27.98 181.776 27.34C180.036 26.7 178.496 25.66 177.156 24.22L179.196 21.52Z" fill="#0069B6"/>
<path d="M5.88 21.52C7.06 22.74 8.31 23.69 9.63 24.37C10.97 25.05 12.55 25.39 14.37 25.39C15.41 25.39 16.41 25.27 17.37 25.03C18.33 24.77 19.12 24.39 19.74 23.89C20.36 23.37 20.67 22.72 20.67 21.94C20.67 21.26 20.39 20.75 19.83 20.41C19.29 20.05 18.5 19.78 17.46 19.6C16.44 19.4 15.19 19.21 13.71 19.03C11.91 18.79 10.35 18.43 9.03 17.95C7.71 17.47 6.69 16.82 5.97 16C5.25 15.18 4.89 14.15 4.89 12.91C4.89 11.59 5.3 10.47 6.12 9.55C6.96 8.63 8.08 7.93 9.48 7.45C10.9 6.95 12.48 6.7 14.22 6.7C16.36 6.7 18.2 7.02 19.74 7.66C21.3 8.3 22.53 9.21 23.43 10.39L21.27 12.76C20.49 11.82 19.5 11.06 18.3 10.48C17.12 9.9 15.73 9.61 14.13 9.61C13.05 9.61 12.08 9.73 11.22 9.97C10.36 10.19 9.68 10.52 9.18 10.96C8.68 11.4 8.43 11.93 8.43 12.55C8.43 13.29 8.69 13.88 9.21 14.32C9.75 14.74 10.5 15.07 11.46 15.31C12.44 15.55 13.57 15.75 14.85 15.91C16.05 16.05 17.21 16.23 18.33 16.45C19.45 16.65 20.45 16.95 21.33 17.35C22.23 17.73 22.93 18.26 23.43 18.94C23.95 19.6 24.21 20.46 24.21 21.52C24.21 22.88 23.8 24.07 22.98 25.09C22.18 26.11 21.04 26.9 19.56 27.46C18.08 28.02 16.34 28.3 14.34 28.3C12.16 28.3 10.2 27.98 8.46 27.34C6.72 26.7 5.18 25.66 3.84 24.22L5.88 21.52Z" fill="black"/>
<path d="M43.0462 7C44.2862 7 45.4162 7.29 46.4362 7.87C47.4762 8.43 48.3062 9.2 48.9262 10.18C49.5462 11.14 49.8562 12.23 49.8562 13.45C49.8562 14.71 49.5162 15.86 48.8362 16.9C48.1562 17.92 47.2562 18.74 46.1362 19.36C45.0162 19.96 43.7862 20.26 42.4462 20.26H34.0162V28H30.7762V7H43.0462ZM42.1462 17.14C42.9262 17.14 43.6362 16.97 44.2762 16.63C44.9162 16.29 45.4262 15.84 45.8062 15.28C46.2062 14.72 46.4062 14.11 46.4062 13.45C46.4062 12.83 46.2062 12.27 45.8062 11.77C45.4262 11.27 44.9162 10.87 44.2762 10.57C43.6362 10.27 42.9262 10.12 42.1462 10.12H34.0162V17.14H42.1462Z" fill="black"/>
<path d="M55.7762 7H73.2062V10.12H59.0162V15.67H71.5562V18.79H59.0162V24.88H73.2062V28H55.7762V7Z" fill="black"/>
</svg>
